<?xml version="1.0" encoding="UTF-8" standalone="no"?>
<!DOCTYPE svg PUBLIC "-//W3C//DTD SVG 1.1//EN"
 "http://www.w3.org/Graphics/SVG/1.1/DTD/svg11.dtd">
<!-- Generated by graphviz version 2.47.2 (20210527.1257)
 -->
<!-- Pages: 1 -->
<svg width="386pt" height="504pt"
 viewBox="0.00 0.00 385.63 504.00" xmlns="http://www.w3.org/2000/svg" xmlns:xlink="http://www.w3.org/1999/xlink">
<g id="graph0" class="graph" transform="scale(0.65 0.65) rotate(0) translate(4 773.96)">
<polygon fill="white" stroke="transparent" points="-4,4 -4,-773.96 591.25,-773.96 591.25,4 -4,4"/>
<!-- N11 -->
<g id="node1" class="node">
<title>N11</title>
<ellipse fill="#8cd499" stroke="red" stroke-width="6" cx="385.25" cy="-26.87" rx="103.48" ry="26.74"/>
<text text-anchor="middle" x="385.25" y="-30.67" font-family="Times-Roman" font-size="14.00">StructureData (11)</text>
<text text-anchor="middle" x="385.25" y="-15.67" font-family="Times-Roman" font-size="14.00">C53</text>
</g>
<!-- N1 -->
<g id="node2" class="node">
<title>N1</title>
<ellipse fill="#8cd499" stroke="black" stroke-width="0" cx="42.25" cy="-743.09" rx="42.49" ry="18"/>
<text text-anchor="middle" x="42.25" y="-739.39" font-family="Times-Roman" font-size="14.00">List (1)</text>
</g>
<!-- N3 -->
<g id="node4" class="node">
<title>N3</title>
<polygon fill="#de707f" fill-opacity="0.466667" stroke="black" stroke-width="0" points="186.75,-650.22 53.75,-650.22 53.75,-597.22 186.75,-597.22 186.75,-650.22"/>
<text text-anchor="middle" x="120.25" y="-635.02" font-family="Times-Roman" font-size="14.00">Atoms.repeat (3)</text>
<text text-anchor="middle" x="120.25" y="-620.02" font-family="Times-Roman" font-size="14.00">State: finished</text>
<text text-anchor="middle" x="120.25" y="-605.02" font-family="Times-Roman" font-size="14.00">Exit Code: 0</text>
</g>
<!-- N1&#45;&gt;N3 -->
<g id="edge2" class="edge">
<title>N1&#45;&gt;N3</title>
<path fill="none" stroke="#000000" d="M53.13,-725.65C63.06,-710.68 78.12,-687.96 91.25,-668.22 93.28,-665.17 95.39,-662 97.5,-658.82"/>
<polygon fill="#000000" stroke="#000000" points="100.43,-660.74 103.06,-650.48 94.6,-656.86 100.43,-660.74"/>
<text text-anchor="middle" x="134.25" y="-687.02" font-family="Times-Roman" font-size="14.00">INPUT_CALC</text>
<text text-anchor="middle" x="134.25" y="-672.02" font-family="Times-Roman" font-size="14.00">arg_00</text>
</g>
<!-- N2 -->
<g id="node3" class="node">
<title>N2</title>
<ellipse fill="#8cd499" stroke="black" stroke-width="0" cx="199.25" cy="-743.09" rx="96.75" ry="26.74"/>
<text text-anchor="middle" x="199.25" y="-746.89" font-family="Times-Roman" font-size="14.00">StructureData (2)</text>
<text text-anchor="middle" x="199.25" y="-731.89" font-family="Times-Roman" font-size="14.00">C2</text>
</g>
<!-- N2&#45;&gt;N3 -->
<g id="edge3" class="edge">
<title>N2&#45;&gt;N3</title>
<path fill="none" stroke="#000000" d="M195.62,-716.08C192.56,-701.07 187.05,-682.43 177.25,-668.22 174.63,-664.43 171.58,-660.83 168.27,-657.44"/>
<polygon fill="#000000" stroke="#000000" points="170.4,-654.63 160.7,-650.36 165.62,-659.74 170.4,-654.63"/>
<text text-anchor="middle" x="234.25" y="-687.02" font-family="Times-Roman" font-size="14.00">INPUT_CALC</text>
<text text-anchor="middle" x="234.25" y="-672.02" font-family="Times-Roman" font-size="14.00">kwargs_0</text>
</g>
<!-- N4 -->
<g id="node5" class="node">
<title>N4</title>
<ellipse fill="#8cd499" stroke="black" stroke-width="0" cx="120.25" cy="-504.35" rx="96.75" ry="26.74"/>
<text text-anchor="middle" x="120.25" y="-508.15" font-family="Times-Roman" font-size="14.00">StructureData (4)</text>
<text text-anchor="middle" x="120.25" y="-493.15" font-family="Times-Roman" font-size="14.00">C54</text>
</g>
<!-- N3&#45;&gt;N4 -->
<g id="edge9" class="edge">
<title>N3&#45;&gt;N4</title>
<path fill="none" stroke="#000000" d="M120.25,-596.96C120.25,-580.72 120.25,-559.49 120.25,-541.57"/>
<polygon fill="#000000" stroke="#000000" points="123.75,-541.45 120.25,-531.45 116.75,-541.45 123.75,-541.45"/>
<text text-anchor="middle" x="147.75" y="-568.02" font-family="Times-Roman" font-size="14.00">CREATE</text>
<text text-anchor="middle" x="147.75" y="-553.02" font-family="Times-Roman" font-size="14.00">result</text>
</g>
<!-- N6 -->
<g id="node7" class="node">
<title>N6</title>
<polygon fill="#de707f" fill-opacity="0.466667" stroke="black" stroke-width="0" points="261.75,-411.48 144.75,-411.48 144.75,-358.48 261.75,-358.48 261.75,-411.48"/>
<text text-anchor="middle" x="203.25" y="-396.28" font-family="Times-Roman" font-size="14.00">Atoms.pop (6)</text>
<text text-anchor="middle" x="203.25" y="-381.28" font-family="Times-Roman" font-size="14.00">State: finished</text>
<text text-anchor="middle" x="203.25" y="-366.28" font-family="Times-Roman" font-size="14.00">Exit Code: 0</text>
</g>
<!-- N4&#45;&gt;N6 -->
<g id="edge7" class="edge">
<title>N4&#45;&gt;N6</title>
<path fill="none" stroke="#000000" d="M126.81,-477.43C131.45,-462.45 138.73,-443.81 149.25,-429.48 151.96,-425.78 155.07,-422.21 158.39,-418.83"/>
<polygon fill="#000000" stroke="#000000" points="161.06,-421.12 165.93,-411.71 156.26,-416.03 161.06,-421.12"/>
<text text-anchor="middle" x="192.25" y="-448.28" font-family="Times-Roman" font-size="14.00">INPUT_CALC</text>
<text text-anchor="middle" x="192.25" y="-433.28" font-family="Times-Roman" font-size="14.00">kwargs_0</text>
</g>
<!-- N5 -->
<g id="node6" class="node">
<title>N5</title>
<ellipse fill="#8cd499" stroke="black" stroke-width="0" cx="286.25" cy="-504.35" rx="50.82" ry="26.74"/>
<text text-anchor="middle" x="286.25" y="-508.15" font-family="Times-Roman" font-size="14.00">Int (5)</text>
<text text-anchor="middle" x="286.25" y="-493.15" font-family="Times-Roman" font-size="14.00">value: 0</text>
</g>
<!-- N5&#45;&gt;N6 -->
<g id="edge5" class="edge">
<title>N5&#45;&gt;N6</title>
<path fill="none" stroke="#000000" d="M271.54,-478.55C262.63,-463.97 250.78,-445.34 239.25,-429.48 236.91,-426.27 234.42,-422.99 231.87,-419.74"/>
<polygon fill="#000000" stroke="#000000" points="234.48,-417.4 225.49,-411.78 229.01,-421.77 234.48,-417.4"/>
<text text-anchor="middle" x="303.25" y="-448.28" font-family="Times-Roman" font-size="14.00">INPUT_CALC</text>
<text text-anchor="middle" x="303.25" y="-433.28" font-family="Times-Roman" font-size="14.00">arg_00</text>
</g>
<!-- N7 -->
<g id="node8" class="node">
<title>N7</title>
<ellipse fill="#8cd499" stroke="black" stroke-width="0" cx="203.25" cy="-265.61" rx="96.75" ry="26.74"/>
<text text-anchor="middle" x="203.25" y="-269.41" font-family="Times-Roman" font-size="14.00">StructureData (7)</text>
<text text-anchor="middle" x="203.25" y="-254.41" font-family="Times-Roman" font-size="14.00">C53</text>
</g>
<!-- N6&#45;&gt;N7 -->
<g id="edge4" class="edge">
<title>N6&#45;&gt;N7</title>
<path fill="none" stroke="#000000" d="M203.25,-358.22C203.25,-341.98 203.25,-320.75 203.25,-302.83"/>
<polygon fill="#000000" stroke="#000000" points="206.75,-302.71 203.25,-292.71 199.75,-302.71 206.75,-302.71"/>
<text text-anchor="middle" x="230.75" y="-329.28" font-family="Times-Roman" font-size="14.00">CREATE</text>
<text text-anchor="middle" x="230.75" y="-314.28" font-family="Times-Roman" font-size="14.00">result</text>
</g>
<!-- N10 -->
<g id="node11" class="node">
<title>N10</title>
<polygon fill="#de707f" fill-opacity="0.466667" stroke="black" stroke-width="0" points="452.25,-172.74 318.25,-172.74 318.25,-119.74 452.25,-119.74 452.25,-172.74"/>
<text text-anchor="middle" x="385.25" y="-157.54" font-family="Times-Roman" font-size="14.00">Atoms.rattle (10)</text>
<text text-anchor="middle" x="385.25" y="-142.54" font-family="Times-Roman" font-size="14.00">State: finished</text>
<text text-anchor="middle" x="385.25" y="-127.54" font-family="Times-Roman" font-size="14.00">Exit Code: 0</text>
</g>
<!-- N7&#45;&gt;N10 -->
<g id="edge10" class="edge">
<title>N7&#45;&gt;N10</title>
<path fill="none" stroke="#000000" d="M231,-239.57C248.64,-224.37 272.39,-205.18 295.25,-190.74 302.5,-186.16 310.3,-181.73 318.17,-177.56"/>
<polygon fill="#000000" stroke="#000000" points="319.79,-180.66 327.07,-172.97 316.57,-174.44 319.79,-180.66"/>
<text text-anchor="middle" x="338.25" y="-209.54" font-family="Times-Roman" font-size="14.00">INPUT_CALC</text>
<text text-anchor="middle" x="338.25" y="-194.54" font-family="Times-Roman" font-size="14.00">kwargs_0</text>
</g>
<!-- N8 -->
<g id="node9" class="node">
<title>N8</title>
<ellipse fill="#8cd499" stroke="black" stroke-width="0" cx="385.25" cy="-265.61" rx="67.35" ry="26.74"/>
<text text-anchor="middle" x="385.25" y="-269.41" font-family="Times-Roman" font-size="14.00">Float (8)</text>
<text text-anchor="middle" x="385.25" y="-254.41" font-family="Times-Roman" font-size="14.00">value: 0.05</text>
</g>
<!-- N8&#45;&gt;N10 -->
<g id="edge1" class="edge">
<title>N8&#45;&gt;N10</title>
<path fill="none" stroke="#000000" d="M385.25,-238.56C385.25,-222.19 385.25,-200.85 385.25,-182.91"/>
<polygon fill="#000000" stroke="#000000" points="388.75,-182.81 385.25,-172.81 381.75,-182.81 388.75,-182.81"/>
<text text-anchor="middle" x="428.25" y="-209.54" font-family="Times-Roman" font-size="14.00">INPUT_CALC</text>
<text text-anchor="middle" x="428.25" y="-194.54" font-family="Times-Roman" font-size="14.00">stdev</text>
</g>
<!-- N9 -->
<g id="node10" class="node">
<title>N9</title>
<ellipse fill="#8cd499" stroke="black" stroke-width="0" cx="527.25" cy="-265.61" rx="57.05" ry="26.74"/>
<text text-anchor="middle" x="527.25" y="-269.41" font-family="Times-Roman" font-size="14.00">Int (9)</text>
<text text-anchor="middle" x="527.25" y="-254.41" font-family="Times-Roman" font-size="14.00">value: 11</text>
</g>
<!-- N9&#45;&gt;N10 -->
<g id="edge8" class="edge">
<title>N9&#45;&gt;N10</title>
<path fill="none" stroke="#000000" d="M513.78,-239.19C504.56,-223.65 491.15,-204.24 475.25,-190.74 469.79,-186.11 463.75,-181.84 457.47,-177.94"/>
<polygon fill="#000000" stroke="#000000" points="459.17,-174.88 448.77,-172.84 455.63,-180.92 459.17,-174.88"/>
<text text-anchor="middle" x="544.25" y="-209.54" font-family="Times-Roman" font-size="14.00">INPUT_CALC</text>
<text text-anchor="middle" x="544.25" y="-194.54" font-family="Times-Roman" font-size="14.00">seed</text>
</g>
<!-- N10&#45;&gt;N11 -->
<g id="edge6" class="edge">
<title>N10&#45;&gt;N11</title>
<path fill="none" stroke="#000000" d="M385.25,-119.48C385.25,-103.24 385.25,-82.01 385.25,-64.09"/>
<polygon fill="#000000" stroke="#000000" points="388.75,-63.97 385.25,-53.97 381.75,-63.97 388.75,-63.97"/>
<text text-anchor="middle" x="412.75" y="-90.54" font-family="Times-Roman" font-size="14.00">CREATE</text>
<text text-anchor="middle" x="412.75" y="-75.54" font-family="Times-Roman" font-size="14.00">result</text>
</g>
</g>
</svg>