<?xml version="1.0" encoding="UTF-8" standalone="no"?>
<!DOCTYPE svg PUBLIC "-//W3C//DTD SVG 1.1//EN"
 "http://www.w3.org/Graphics/SVG/1.1/DTD/svg11.dtd">
<!-- Generated by graphviz version 2.47.2 (20210527.1257)
 -->
<!-- Pages: 1 -->
<svg width="438pt" height="504pt"
 viewBox="0.00 0.00 437.89 504.00" xmlns="http://www.w3.org/2000/svg" xmlns:xlink="http://www.w3.org/1999/xlink">
<g id="graph0" class="graph" transform="scale(0.65 0.65) rotate(0) translate(4 773.96)">
<polygon fill="white" stroke="transparent" points="-4,4 -4,-773.96 671.92,-773.96 671.92,4 -4,4"/>
<!-- N2 -->
<g id="node1" class="node">
<title>N2</title>
<ellipse fill="#8cd499" stroke="red" stroke-width="6" cx="302.29" cy="-743.09" rx="92.76" ry="26.74"/>
<text text-anchor="middle" x="302.29" y="-746.89" font-family="Times-Roman" font-size="14.00">StructureData (2)</text>
<text text-anchor="middle" x="302.29" y="-731.89" font-family="Times-Roman" font-size="14.00">C2</text>
</g>
<!-- N3 -->
<g id="node3" class="node">
<title>N3</title>
<polygon fill="#de707f" fill-opacity="0.466667" stroke="black" stroke-width="0" points="440.29,-650.22 314.29,-650.22 314.29,-597.22 440.29,-597.22 440.29,-650.22"/>
<text text-anchor="middle" x="377.29" y="-635.02" font-family="Times-Roman" font-size="14.00">Atoms.repeat (3)</text>
<text text-anchor="middle" x="377.29" y="-620.02" font-family="Times-Roman" font-size="14.00">State: finished</text>
<text text-anchor="middle" x="377.29" y="-605.02" font-family="Times-Roman" font-size="14.00">Exit Code: 0</text>
</g>
<!-- N2&#45;&gt;N3 -->
<g id="edge5" class="edge">
<title>N2&#45;&gt;N3</title>
<path fill="none" stroke="#000000" d="M303.85,-716.09C305.79,-701.1 310.03,-682.45 319.29,-668.22 321.79,-664.38 324.75,-660.75 327.99,-657.35"/>
<polygon fill="#000000" stroke="#000000" points="330.61,-659.69 335.47,-650.28 325.8,-654.61 330.61,-659.69"/>
<text text-anchor="middle" x="360.29" y="-687.02" font-family="Times-Roman" font-size="14.00">INPUT_CALC</text>
<text text-anchor="middle" x="360.29" y="-672.02" font-family="Times-Roman" font-size="14.00">kwargs_0</text>
</g>
<!-- N1 -->
<g id="node2" class="node">
<title>N1</title>
<ellipse fill="#8cd499" stroke="black" stroke-width="0" cx="452.29" cy="-743.09" rx="39.79" ry="18"/>
<text text-anchor="middle" x="452.29" y="-739.39" font-family="Times-Roman" font-size="14.00">List (1)</text>
</g>
<!-- N1&#45;&gt;N3 -->
<g id="edge3" class="edge">
<title>N1&#45;&gt;N3</title>
<path fill="none" stroke="#000000" d="M441.7,-725.52C430.7,-708.31 413.17,-680.87 399.17,-658.96"/>
<polygon fill="#000000" stroke="#000000" points="401.94,-656.81 393.61,-650.26 396.05,-660.57 401.94,-656.81"/>
<text text-anchor="middle" x="464.29" y="-687.02" font-family="Times-Roman" font-size="14.00">INPUT_CALC</text>
<text text-anchor="middle" x="464.29" y="-672.02" font-family="Times-Roman" font-size="14.00">arg_00</text>
</g>
<!-- N4 -->
<g id="node4" class="node">
<title>N4</title>
<ellipse fill="#8cd499" stroke="black" stroke-width="0" cx="377.29" cy="-504.35" rx="92.76" ry="26.74"/>
<text text-anchor="middle" x="377.29" y="-508.15" font-family="Times-Roman" font-size="14.00">StructureData (4)</text>
<text text-anchor="middle" x="377.29" y="-493.15" font-family="Times-Roman" font-size="14.00">C54</text>
</g>
<!-- N3&#45;&gt;N4 -->
<g id="edge6" class="edge">
<title>N3&#45;&gt;N4</title>
<path fill="none" stroke="#000000" d="M377.29,-596.96C377.29,-580.72 377.29,-559.49 377.29,-541.57"/>
<polygon fill="#000000" stroke="#000000" points="380.79,-541.45 377.29,-531.45 373.79,-541.45 380.79,-541.45"/>
<text text-anchor="middle" x="401.79" y="-568.02" font-family="Times-Roman" font-size="14.00">CREATE</text>
<text text-anchor="middle" x="401.79" y="-553.02" font-family="Times-Roman" font-size="14.00">result</text>
</g>
<!-- N6 -->
<g id="node6" class="node">
<title>N6</title>
<polygon fill="#de707f" fill-opacity="0.466667" stroke="black" stroke-width="0" points="616.79,-411.48 505.79,-411.48 505.79,-358.48 616.79,-358.48 616.79,-411.48"/>
<text text-anchor="middle" x="561.29" y="-396.28" font-family="Times-Roman" font-size="14.00">Atoms.pop (6)</text>
<text text-anchor="middle" x="561.29" y="-381.28" font-family="Times-Roman" font-size="14.00">State: finished</text>
<text text-anchor="middle" x="561.29" y="-366.28" font-family="Times-Roman" font-size="14.00">Exit Code: 0</text>
</g>
<!-- N4&#45;&gt;N6 -->
<g id="edge11" class="edge">
<title>N4&#45;&gt;N6</title>
<path fill="none" stroke="#000000" d="M407.19,-478.61C426.11,-463.53 451.42,-444.35 475.29,-429.48 482.43,-425.03 490.09,-420.65 497.79,-416.48"/>
<polygon fill="#000000" stroke="#000000" points="499.61,-419.47 506.81,-411.69 496.33,-413.29 499.61,-419.47"/>
<text text-anchor="middle" x="516.29" y="-448.28" font-family="Times-Roman" font-size="14.00">INPUT_CALC</text>
<text text-anchor="middle" x="516.29" y="-433.28" font-family="Times-Roman" font-size="14.00">kwargs_0</text>
</g>
<!-- N13 -->
<g id="node13" class="node">
<title>N13</title>
<polygon fill="#de707f" fill-opacity="0.466667" stroke="black" stroke-width="0" points="197.29,-411.48 81.29,-411.48 81.29,-358.48 197.29,-358.48 197.29,-411.48"/>
<text text-anchor="middle" x="139.29" y="-396.28" font-family="Times-Roman" font-size="14.00">Atoms.pop (13)</text>
<text text-anchor="middle" x="139.29" y="-381.28" font-family="Times-Roman" font-size="14.00">State: finished</text>
<text text-anchor="middle" x="139.29" y="-366.28" font-family="Times-Roman" font-size="14.00">Exit Code: 0</text>
</g>
<!-- N4&#45;&gt;N13 -->
<g id="edge2" class="edge">
<title>N4&#45;&gt;N13</title>
<path fill="none" stroke="#000000" d="M331.68,-480.86C294.41,-462.48 241.39,-436.33 200.44,-416.14"/>
<polygon fill="#000000" stroke="#000000" points="201.88,-412.95 191.37,-411.66 198.79,-419.22 201.88,-412.95"/>
<text text-anchor="middle" x="328.29" y="-448.28" font-family="Times-Roman" font-size="14.00">INPUT_CALC</text>
<text text-anchor="middle" x="328.29" y="-433.28" font-family="Times-Roman" font-size="14.00">kwargs_0</text>
</g>
<!-- N5 -->
<g id="node5" class="node">
<title>N5</title>
<ellipse fill="#8cd499" stroke="black" stroke-width="0" cx="561.29" cy="-504.35" rx="48.17" ry="26.74"/>
<text text-anchor="middle" x="561.29" y="-508.15" font-family="Times-Roman" font-size="14.00">Int (5)</text>
<text text-anchor="middle" x="561.29" y="-493.15" font-family="Times-Roman" font-size="14.00">value: 0</text>
</g>
<!-- N5&#45;&gt;N6 -->
<g id="edge1" class="edge">
<title>N5&#45;&gt;N6</title>
<path fill="none" stroke="#000000" d="M561.29,-477.3C561.29,-460.93 561.29,-439.59 561.29,-421.65"/>
<polygon fill="#000000" stroke="#000000" points="564.79,-421.55 561.29,-411.55 557.79,-421.55 564.79,-421.55"/>
<text text-anchor="middle" x="602.29" y="-448.28" font-family="Times-Roman" font-size="14.00">INPUT_CALC</text>
<text text-anchor="middle" x="602.29" y="-433.28" font-family="Times-Roman" font-size="14.00">arg_00</text>
</g>
<!-- N7 -->
<g id="node7" class="node">
<title>N7</title>
<ellipse fill="#8cd499" stroke="black" stroke-width="0" cx="575.29" cy="-265.61" rx="92.76" ry="26.74"/>
<text text-anchor="middle" x="575.29" y="-269.41" font-family="Times-Roman" font-size="14.00">StructureData (7)</text>
<text text-anchor="middle" x="575.29" y="-254.41" font-family="Times-Roman" font-size="14.00">C53</text>
</g>
<!-- N6&#45;&gt;N7 -->
<g id="edge14" class="edge">
<title>N6&#45;&gt;N7</title>
<path fill="none" stroke="#000000" d="M564.36,-358.22C566.3,-341.98 568.83,-320.75 570.97,-302.83"/>
<polygon fill="#000000" stroke="#000000" points="574.47,-303.06 572.17,-292.71 567.51,-302.23 574.47,-303.06"/>
<text text-anchor="middle" x="593.79" y="-329.28" font-family="Times-Roman" font-size="14.00">CREATE</text>
<text text-anchor="middle" x="593.79" y="-314.28" font-family="Times-Roman" font-size="14.00">result</text>
</g>
<!-- N10 -->
<g id="node10" class="node">
<title>N10</title>
<polygon fill="#de707f" fill-opacity="0.466667" stroke="black" stroke-width="0" points="474.79,-172.74 347.79,-172.74 347.79,-119.74 474.79,-119.74 474.79,-172.74"/>
<text text-anchor="middle" x="411.29" y="-157.54" font-family="Times-Roman" font-size="14.00">Atoms.rattle (10)</text>
<text text-anchor="middle" x="411.29" y="-142.54" font-family="Times-Roman" font-size="14.00">State: finished</text>
<text text-anchor="middle" x="411.29" y="-127.54" font-family="Times-Roman" font-size="14.00">Exit Code: 0</text>
</g>
<!-- N7&#45;&gt;N10 -->
<g id="edge9" class="edge">
<title>N7&#45;&gt;N10</title>
<path fill="none" stroke="#000000" d="M552.29,-239.38C537.53,-224.11 517.42,-204.91 497.29,-190.74 490.84,-186.2 483.86,-181.86 476.75,-177.8"/>
<polygon fill="#000000" stroke="#000000" points="478.15,-174.58 467.71,-172.81 474.77,-180.71 478.15,-174.58"/>
<text text-anchor="middle" x="572.29" y="-209.54" font-family="Times-Roman" font-size="14.00">INPUT_CALC</text>
<text text-anchor="middle" x="572.29" y="-194.54" font-family="Times-Roman" font-size="14.00">kwargs_0</text>
</g>
<!-- N8 -->
<g id="node8" class="node">
<title>N8</title>
<ellipse fill="#8cd499" stroke="black" stroke-width="0" cx="277.29" cy="-265.61" rx="62.45" ry="26.74"/>
<text text-anchor="middle" x="277.29" y="-269.41" font-family="Times-Roman" font-size="14.00">Float (8)</text>
<text text-anchor="middle" x="277.29" y="-254.41" font-family="Times-Roman" font-size="14.00">value: 0.05</text>
</g>
<!-- N8&#45;&gt;N10 -->
<g id="edge7" class="edge">
<title>N8&#45;&gt;N10</title>
<path fill="none" stroke="#000000" d="M289.4,-239.25C297.78,-223.73 310.15,-204.33 325.29,-190.74 330.31,-186.23 335.88,-182.07 341.7,-178.25"/>
<polygon fill="#000000" stroke="#000000" points="343.71,-181.13 350.38,-172.9 340.03,-175.17 343.71,-181.13"/>
<text text-anchor="middle" x="366.29" y="-209.54" font-family="Times-Roman" font-size="14.00">INPUT_CALC</text>
<text text-anchor="middle" x="366.29" y="-194.54" font-family="Times-Roman" font-size="14.00">stdev</text>
</g>
<!-- N9 -->
<g id="node9" class="node">
<title>N9</title>
<ellipse fill="#8cd499" stroke="black" stroke-width="0" cx="411.29" cy="-265.61" rx="53.98" ry="26.74"/>
<text text-anchor="middle" x="411.29" y="-269.41" font-family="Times-Roman" font-size="14.00">Int (9)</text>
<text text-anchor="middle" x="411.29" y="-254.41" font-family="Times-Roman" font-size="14.00">value: 11</text>
</g>
<!-- N9&#45;&gt;N10 -->
<g id="edge4" class="edge">
<title>N9&#45;&gt;N10</title>
<path fill="none" stroke="#000000" d="M411.29,-238.56C411.29,-222.19 411.29,-200.85 411.29,-182.91"/>
<polygon fill="#000000" stroke="#000000" points="414.79,-182.81 411.29,-172.81 407.79,-182.81 414.79,-182.81"/>
<text text-anchor="middle" x="452.29" y="-209.54" font-family="Times-Roman" font-size="14.00">INPUT_CALC</text>
<text text-anchor="middle" x="452.29" y="-194.54" font-family="Times-Roman" font-size="14.00">seed</text>
</g>
<!-- N11 -->
<g id="node11" class="node">
<title>N11</title>
<ellipse fill="#8cd499" stroke="black" stroke-width="0" cx="411.29" cy="-26.87" rx="98.08" ry="26.74"/>
<text text-anchor="middle" x="411.29" y="-30.67" font-family="Times-Roman" font-size="14.00">StructureData (11)</text>
<text text-anchor="middle" x="411.29" y="-15.67" font-family="Times-Roman" font-size="14.00">C53</text>
</g>
<!-- N10&#45;&gt;N11 -->
<g id="edge15" class="edge">
<title>N10&#45;&gt;N11</title>
<path fill="none" stroke="#000000" d="M411.29,-119.48C411.29,-103.24 411.29,-82.01 411.29,-64.09"/>
<polygon fill="#000000" stroke="#000000" points="414.79,-63.97 411.29,-53.97 407.79,-63.97 414.79,-63.97"/>
<text text-anchor="middle" x="435.79" y="-90.54" font-family="Times-Roman" font-size="14.00">CREATE</text>
<text text-anchor="middle" x="435.79" y="-75.54" font-family="Times-Roman" font-size="14.00">result</text>
</g>
<!-- N12 -->
<g id="node12" class="node">
<title>N12</title>
<ellipse fill="#8cd499" stroke="black" stroke-width="0" cx="139.29" cy="-504.35" rx="48.17" ry="26.74"/>
<text text-anchor="middle" x="139.29" y="-508.15" font-family="Times-Roman" font-size="14.00">Int (12)</text>
<text text-anchor="middle" x="139.29" y="-493.15" font-family="Times-Roman" font-size="14.00">value: 1</text>
</g>
<!-- N12&#45;&gt;N13 -->
<g id="edge10" class="edge">
<title>N12&#45;&gt;N13</title>
<path fill="none" stroke="#000000" d="M139.29,-477.3C139.29,-460.93 139.29,-439.59 139.29,-421.65"/>
<polygon fill="#000000" stroke="#000000" points="142.79,-421.55 139.29,-411.55 135.79,-421.55 142.79,-421.55"/>
<text text-anchor="middle" x="180.29" y="-448.28" font-family="Times-Roman" font-size="14.00">INPUT_CALC</text>
<text text-anchor="middle" x="180.29" y="-433.28" font-family="Times-Roman" font-size="14.00">arg_00</text>
</g>
<!-- N14 -->
<g id="node14" class="node">
<title>N14</title>
<ellipse fill="#8cd499" stroke="black" stroke-width="0" cx="98.29" cy="-265.61" rx="98.08" ry="26.74"/>
<text text-anchor="middle" x="98.29" y="-269.41" font-family="Times-Roman" font-size="14.00">StructureData (14)</text>
<text text-anchor="middle" x="98.29" y="-254.41" font-family="Times-Roman" font-size="14.00">C53</text>
</g>
<!-- N13&#45;&gt;N14 -->
<g id="edge13" class="edge">
<title>N13&#45;&gt;N14</title>
<path fill="none" stroke="#000000" d="M130.29,-358.22C124.56,-341.83 117.06,-320.36 110.76,-302.32"/>
<polygon fill="#000000" stroke="#000000" points="114.01,-301 107.41,-292.71 107.4,-303.31 114.01,-301"/>
<text text-anchor="middle" x="148.79" y="-329.28" font-family="Times-Roman" font-size="14.00">CREATE</text>
<text text-anchor="middle" x="148.79" y="-314.28" font-family="Times-Roman" font-size="14.00">result</text>
</g>
<!-- N15 -->
<g id="node15" class="node">
<title>N15</title>
<polygon fill="#de707f" fill-opacity="0.466667" stroke="black" stroke-width="0" points="153.79,-172.74 42.79,-172.74 42.79,-119.74 153.79,-119.74 153.79,-172.74"/>
<text text-anchor="middle" x="98.29" y="-157.54" font-family="Times-Roman" font-size="14.00">sort (15)</text>
<text text-anchor="middle" x="98.29" y="-142.54" font-family="Times-Roman" font-size="14.00">State: finished</text>
<text text-anchor="middle" x="98.29" y="-127.54" font-family="Times-Roman" font-size="14.00">Exit Code: 0</text>
</g>
<!-- N14&#45;&gt;N15 -->
<g id="edge8" class="edge">
<title>N14&#45;&gt;N15</title>
<path fill="none" stroke="#000000" d="M98.29,-238.56C98.29,-222.19 98.29,-200.85 98.29,-182.91"/>
<polygon fill="#000000" stroke="#000000" points="101.79,-182.81 98.29,-172.81 94.79,-182.81 101.79,-182.81"/>
<text text-anchor="middle" x="139.29" y="-209.54" font-family="Times-Roman" font-size="14.00">INPUT_CALC</text>
<text text-anchor="middle" x="139.29" y="-194.54" font-family="Times-Roman" font-size="14.00">kwargs_0</text>
</g>
<!-- N16 -->
<g id="node16" class="node">
<title>N16</title>
<ellipse fill="#8cd499" stroke="black" stroke-width="0" cx="98.29" cy="-26.87" rx="98.08" ry="26.74"/>
<text text-anchor="middle" x="98.29" y="-30.67" font-family="Times-Roman" font-size="14.00">StructureData (16)</text>
<text text-anchor="middle" x="98.29" y="-15.67" font-family="Times-Roman" font-size="14.00">C53</text>
</g>
<!-- N15&#45;&gt;N16 -->
<g id="edge12" class="edge">
<title>N15&#45;&gt;N16</title>
<path fill="none" stroke="#000000" d="M98.29,-119.48C98.29,-103.24 98.29,-82.01 98.29,-64.09"/>
<polygon fill="#000000" stroke="#000000" points="101.79,-63.97 98.29,-53.97 94.79,-63.97 101.79,-63.97"/>
<text text-anchor="middle" x="122.79" y="-90.54" font-family="Times-Roman" font-size="14.00">CREATE</text>
<text text-anchor="middle" x="122.79" y="-75.54" font-family="Times-Roman" font-size="14.00">result</text>
</g>
</g>
</svg>