<?xml version="1.0" encoding="UTF-8" standalone="no"?>
<!DOCTYPE svg PUBLIC "-//W3C//DTD SVG 1.1//EN"
 "http://www.w3.org/Graphics/SVG/1.1/DTD/svg11.dtd">
<!-- Generated by graphviz version 2.47.2 (20210527.1257)
 -->
<!-- Pages: 1 -->
<svg width="460pt" height="504pt"
 viewBox="0.00 0.00 460.04 504.00" xmlns="http://www.w3.org/2000/svg" xmlns:xlink="http://www.w3.org/1999/xlink">
<g id="graph0" class="graph" transform="scale(0.65 0.65) rotate(0) translate(4 773.96)">
<polygon fill="white" stroke="transparent" points="-4,4 -4,-773.96 706.11,-773.96 706.11,4 -4,4"/>
<!-- N2 -->
<g id="node1" class="node">
<title>N2</title>
<ellipse fill="#8cd499" stroke="red" stroke-width="6" cx="320.24" cy="-743.09" rx="96.75" ry="26.74"/>
<text text-anchor="middle" x="320.24" y="-746.89" font-family="Times-Roman" font-size="14.00">StructureData (2)</text>
<text text-anchor="middle" x="320.24" y="-731.89" font-family="Times-Roman" font-size="14.00">C2</text>
</g>
<!-- N3 -->
<g id="node3" class="node">
<title>N3</title>
<polygon fill="#de707f" fill-opacity="0.466667" stroke="black" stroke-width="0" points="464.74,-650.22 331.74,-650.22 331.74,-597.22 464.74,-597.22 464.74,-650.22"/>
<text text-anchor="middle" x="398.24" y="-635.02" font-family="Times-Roman" font-size="14.00">Atoms.repeat (3)</text>
<text text-anchor="middle" x="398.24" y="-620.02" font-family="Times-Roman" font-size="14.00">State: finished</text>
<text text-anchor="middle" x="398.24" y="-605.02" font-family="Times-Roman" font-size="14.00">Exit Code: 0</text>
</g>
<!-- N2&#45;&gt;N3 -->
<g id="edge1" class="edge">
<title>N2&#45;&gt;N3</title>
<path fill="none" stroke="#000000" d="M337.23,-716.44C346.65,-702.23 358.59,-684.24 369.24,-668.22 371.27,-665.17 373.38,-662 375.49,-658.82"/>
<polygon fill="#000000" stroke="#000000" points="378.42,-660.74 381.05,-650.48 372.6,-656.86 378.42,-660.74"/>
<text text-anchor="middle" x="412.24" y="-687.02" font-family="Times-Roman" font-size="14.00">INPUT_CALC</text>
<text text-anchor="middle" x="412.24" y="-672.02" font-family="Times-Roman" font-size="14.00">kwargs_0</text>
</g>
<!-- N1 -->
<g id="node2" class="node">
<title>N1</title>
<ellipse fill="#8cd499" stroke="black" stroke-width="0" cx="477.24" cy="-743.09" rx="42.49" ry="18"/>
<text text-anchor="middle" x="477.24" y="-739.39" font-family="Times-Roman" font-size="14.00">List (1)</text>
</g>
<!-- N1&#45;&gt;N3 -->
<g id="edge6" class="edge">
<title>N1&#45;&gt;N3</title>
<path fill="none" stroke="#000000" d="M475.22,-724.95C472.67,-709.07 467.1,-685.4 455.24,-668.22 452.62,-664.43 449.57,-660.83 446.27,-657.44"/>
<polygon fill="#000000" stroke="#000000" points="448.39,-654.63 438.69,-650.36 443.61,-659.74 448.39,-654.63"/>
<text text-anchor="middle" x="511.24" y="-687.02" font-family="Times-Roman" font-size="14.00">INPUT_CALC</text>
<text text-anchor="middle" x="511.24" y="-672.02" font-family="Times-Roman" font-size="14.00">arg_00</text>
</g>
<!-- N4 -->
<g id="node4" class="node">
<title>N4</title>
<ellipse fill="#8cd499" stroke="black" stroke-width="0" cx="398.24" cy="-504.35" rx="96.75" ry="26.74"/>
<text text-anchor="middle" x="398.24" y="-508.15" font-family="Times-Roman" font-size="14.00">StructureData (4)</text>
<text text-anchor="middle" x="398.24" y="-493.15" font-family="Times-Roman" font-size="14.00">C54</text>
</g>
<!-- N3&#45;&gt;N4 -->
<g id="edge5" class="edge">
<title>N3&#45;&gt;N4</title>
<path fill="none" stroke="#000000" d="M398.24,-596.96C398.24,-580.72 398.24,-559.49 398.24,-541.57"/>
<polygon fill="#000000" stroke="#000000" points="401.74,-541.45 398.24,-531.45 394.74,-541.45 401.74,-541.45"/>
<text text-anchor="middle" x="425.74" y="-568.02" font-family="Times-Roman" font-size="14.00">CREATE</text>
<text text-anchor="middle" x="425.74" y="-553.02" font-family="Times-Roman" font-size="14.00">result</text>
</g>
<!-- N6 -->
<g id="node6" class="node">
<title>N6</title>
<polygon fill="#de707f" fill-opacity="0.466667" stroke="black" stroke-width="0" points="648.74,-411.48 531.74,-411.48 531.74,-358.48 648.74,-358.48 648.74,-411.48"/>
<text text-anchor="middle" x="590.24" y="-396.28" font-family="Times-Roman" font-size="14.00">Atoms.pop (6)</text>
<text text-anchor="middle" x="590.24" y="-381.28" font-family="Times-Roman" font-size="14.00">State: finished</text>
<text text-anchor="middle" x="590.24" y="-366.28" font-family="Times-Roman" font-size="14.00">Exit Code: 0</text>
</g>
<!-- N4&#45;&gt;N6 -->
<g id="edge2" class="edge">
<title>N4&#45;&gt;N6</title>
<path fill="none" stroke="#000000" d="M429.41,-478.56C449.12,-463.46 475.46,-444.28 500.24,-429.48 507.81,-424.95 515.93,-420.51 524.08,-416.29"/>
<polygon fill="#000000" stroke="#000000" points="525.93,-419.28 533.26,-411.63 522.76,-413.04 525.93,-419.28"/>
<text text-anchor="middle" x="543.24" y="-448.28" font-family="Times-Roman" font-size="14.00">INPUT_CALC</text>
<text text-anchor="middle" x="543.24" y="-433.28" font-family="Times-Roman" font-size="14.00">kwargs_0</text>
</g>
<!-- N13 -->
<g id="node13" class="node">
<title>N13</title>
<polygon fill="#de707f" fill-opacity="0.466667" stroke="black" stroke-width="0" points="209.24,-411.48 85.24,-411.48 85.24,-358.48 209.24,-358.48 209.24,-411.48"/>
<text text-anchor="middle" x="147.24" y="-396.28" font-family="Times-Roman" font-size="14.00">Atoms.pop (13)</text>
<text text-anchor="middle" x="147.24" y="-381.28" font-family="Times-Roman" font-size="14.00">State: finished</text>
<text text-anchor="middle" x="147.24" y="-366.28" font-family="Times-Roman" font-size="14.00">Exit Code: 0</text>
</g>
<!-- N4&#45;&gt;N13 -->
<g id="edge15" class="edge">
<title>N4&#45;&gt;N13</title>
<path fill="none" stroke="#000000" d="M350.14,-480.86C310.75,-462.44 254.68,-436.22 211.46,-416.01"/>
<polygon fill="#000000" stroke="#000000" points="212.7,-412.73 202.16,-411.66 209.74,-419.07 212.7,-412.73"/>
<text text-anchor="middle" x="346.24" y="-448.28" font-family="Times-Roman" font-size="14.00">INPUT_CALC</text>
<text text-anchor="middle" x="346.24" y="-433.28" font-family="Times-Roman" font-size="14.00">kwargs_0</text>
</g>
<!-- N5 -->
<g id="node5" class="node">
<title>N5</title>
<ellipse fill="#8cd499" stroke="black" stroke-width="0" cx="590.24" cy="-504.35" rx="50.82" ry="26.74"/>
<text text-anchor="middle" x="590.24" y="-508.15" font-family="Times-Roman" font-size="14.00">Int (5)</text>
<text text-anchor="middle" x="590.24" y="-493.15" font-family="Times-Roman" font-size="14.00">value: 0</text>
</g>
<!-- N5&#45;&gt;N6 -->
<g id="edge14" class="edge">
<title>N5&#45;&gt;N6</title>
<path fill="none" stroke="#000000" d="M590.24,-477.3C590.24,-460.93 590.24,-439.59 590.24,-421.65"/>
<polygon fill="#000000" stroke="#000000" points="593.74,-421.55 590.24,-411.55 586.74,-421.55 593.74,-421.55"/>
<text text-anchor="middle" x="633.24" y="-448.28" font-family="Times-Roman" font-size="14.00">INPUT_CALC</text>
<text text-anchor="middle" x="633.24" y="-433.28" font-family="Times-Roman" font-size="14.00">arg_00</text>
</g>
<!-- N7 -->
<g id="node7" class="node">
<title>N7</title>
<ellipse fill="#8cd499" stroke="black" stroke-width="0" cx="605.24" cy="-265.61" rx="96.75" ry="26.74"/>
<text text-anchor="middle" x="605.24" y="-269.41" font-family="Times-Roman" font-size="14.00">StructureData (7)</text>
<text text-anchor="middle" x="605.24" y="-254.41" font-family="Times-Roman" font-size="14.00">C53</text>
</g>
<!-- N6&#45;&gt;N7 -->
<g id="edge13" class="edge">
<title>N6&#45;&gt;N7</title>
<path fill="none" stroke="#000000" d="M593.53,-358.22C595.61,-341.98 598.32,-320.75 600.61,-302.83"/>
<polygon fill="#000000" stroke="#000000" points="604.11,-303.08 601.9,-292.71 597.16,-302.19 604.11,-303.08"/>
<text text-anchor="middle" x="626.74" y="-329.28" font-family="Times-Roman" font-size="14.00">CREATE</text>
<text text-anchor="middle" x="626.74" y="-314.28" font-family="Times-Roman" font-size="14.00">result</text>
</g>
<!-- N10 -->
<g id="node10" class="node">
<title>N10</title>
<polygon fill="#de707f" fill-opacity="0.466667" stroke="black" stroke-width="0" points="500.24,-172.74 366.24,-172.74 366.24,-119.74 500.24,-119.74 500.24,-172.74"/>
<text text-anchor="middle" x="433.24" y="-157.54" font-family="Times-Roman" font-size="14.00">Atoms.rattle (10)</text>
<text text-anchor="middle" x="433.24" y="-142.54" font-family="Times-Roman" font-size="14.00">State: finished</text>
<text text-anchor="middle" x="433.24" y="-127.54" font-family="Times-Roman" font-size="14.00">Exit Code: 0</text>
</g>
<!-- N7&#45;&gt;N10 -->
<g id="edge9" class="edge">
<title>N7&#45;&gt;N10</title>
<path fill="none" stroke="#000000" d="M580.93,-239.34C565.37,-224.05 544.23,-204.85 523.24,-190.74 516.3,-186.08 508.79,-181.63 501.17,-177.48"/>
<polygon fill="#000000" stroke="#000000" points="502.67,-174.32 492.19,-172.76 499.41,-180.51 502.67,-174.32"/>
<text text-anchor="middle" x="603.24" y="-209.54" font-family="Times-Roman" font-size="14.00">INPUT_CALC</text>
<text text-anchor="middle" x="603.24" y="-194.54" font-family="Times-Roman" font-size="14.00">kwargs_0</text>
</g>
<!-- N8 -->
<g id="node8" class="node">
<title>N8</title>
<ellipse fill="#8cd499" stroke="black" stroke-width="0" cx="291.24" cy="-265.61" rx="67.35" ry="26.74"/>
<text text-anchor="middle" x="291.24" y="-269.41" font-family="Times-Roman" font-size="14.00">Float (8)</text>
<text text-anchor="middle" x="291.24" y="-254.41" font-family="Times-Roman" font-size="14.00">value: 0.05</text>
</g>
<!-- N8&#45;&gt;N10 -->
<g id="edge8" class="edge">
<title>N8&#45;&gt;N10</title>
<path fill="none" stroke="#000000" d="M304.7,-239.19C313.92,-223.65 327.34,-204.24 343.24,-190.74 348.7,-186.11 354.73,-181.84 361.02,-177.94"/>
<polygon fill="#000000" stroke="#000000" points="362.85,-180.92 369.71,-172.84 359.31,-174.88 362.85,-180.92"/>
<text text-anchor="middle" x="386.24" y="-209.54" font-family="Times-Roman" font-size="14.00">INPUT_CALC</text>
<text text-anchor="middle" x="386.24" y="-194.54" font-family="Times-Roman" font-size="14.00">stdev</text>
</g>
<!-- N9 -->
<g id="node9" class="node">
<title>N9</title>
<ellipse fill="#8cd499" stroke="black" stroke-width="0" cx="433.24" cy="-265.61" rx="57.05" ry="26.74"/>
<text text-anchor="middle" x="433.24" y="-269.41" font-family="Times-Roman" font-size="14.00">Int (9)</text>
<text text-anchor="middle" x="433.24" y="-254.41" font-family="Times-Roman" font-size="14.00">value: 11</text>
</g>
<!-- N9&#45;&gt;N10 -->
<g id="edge4" class="edge">
<title>N9&#45;&gt;N10</title>
<path fill="none" stroke="#000000" d="M433.24,-238.56C433.24,-222.19 433.24,-200.85 433.24,-182.91"/>
<polygon fill="#000000" stroke="#000000" points="436.74,-182.81 433.24,-172.81 429.74,-182.81 436.74,-182.81"/>
<text text-anchor="middle" x="476.24" y="-209.54" font-family="Times-Roman" font-size="14.00">INPUT_CALC</text>
<text text-anchor="middle" x="476.24" y="-194.54" font-family="Times-Roman" font-size="14.00">seed</text>
</g>
<!-- N11 -->
<g id="node11" class="node">
<title>N11</title>
<ellipse fill="#8cd499" stroke="black" stroke-width="0" cx="433.24" cy="-26.87" rx="103.48" ry="26.74"/>
<text text-anchor="middle" x="433.24" y="-30.67" font-family="Times-Roman" font-size="14.00">StructureData (11)</text>
<text text-anchor="middle" x="433.24" y="-15.67" font-family="Times-Roman" font-size="14.00">C53</text>
</g>
<!-- N10&#45;&gt;N11 -->
<g id="edge11" class="edge">
<title>N10&#45;&gt;N11</title>
<path fill="none" stroke="#000000" d="M433.24,-119.48C433.24,-103.24 433.24,-82.01 433.24,-64.09"/>
<polygon fill="#000000" stroke="#000000" points="436.74,-63.97 433.24,-53.97 429.74,-63.97 436.74,-63.97"/>
<text text-anchor="middle" x="460.74" y="-90.54" font-family="Times-Roman" font-size="14.00">CREATE</text>
<text text-anchor="middle" x="460.74" y="-75.54" font-family="Times-Roman" font-size="14.00">result</text>
</g>
<!-- N12 -->
<g id="node12" class="node">
<title>N12</title>
<ellipse fill="#8cd499" stroke="black" stroke-width="0" cx="147.24" cy="-504.35" rx="50.82" ry="26.74"/>
<text text-anchor="middle" x="147.24" y="-508.15" font-family="Times-Roman" font-size="14.00">Int (12)</text>
<text text-anchor="middle" x="147.24" y="-493.15" font-family="Times-Roman" font-size="14.00">value: 1</text>
</g>
<!-- N12&#45;&gt;N13 -->
<g id="edge7" class="edge">
<title>N12&#45;&gt;N13</title>
<path fill="none" stroke="#000000" d="M147.24,-477.3C147.24,-460.93 147.24,-439.59 147.24,-421.65"/>
<polygon fill="#000000" stroke="#000000" points="150.74,-421.55 147.24,-411.55 143.74,-421.55 150.74,-421.55"/>
<text text-anchor="middle" x="190.24" y="-448.28" font-family="Times-Roman" font-size="14.00">INPUT_CALC</text>
<text text-anchor="middle" x="190.24" y="-433.28" font-family="Times-Roman" font-size="14.00">arg_00</text>
</g>
<!-- N14 -->
<g id="node14" class="node">
<title>N14</title>
<ellipse fill="#8cd499" stroke="black" stroke-width="0" cx="103.24" cy="-265.61" rx="103.48" ry="26.74"/>
<text text-anchor="middle" x="103.24" y="-269.41" font-family="Times-Roman" font-size="14.00">StructureData (14)</text>
<text text-anchor="middle" x="103.24" y="-254.41" font-family="Times-Roman" font-size="14.00">C53</text>
</g>
<!-- N13&#45;&gt;N14 -->
<g id="edge3" class="edge">
<title>N13&#45;&gt;N14</title>
<path fill="none" stroke="#000000" d="M137.58,-358.22C131.43,-341.83 123.39,-320.36 116.63,-302.32"/>
<polygon fill="#000000" stroke="#000000" points="119.81,-300.85 113.02,-292.71 113.26,-303.31 119.81,-300.85"/>
<text text-anchor="middle" x="158.74" y="-329.28" font-family="Times-Roman" font-size="14.00">CREATE</text>
<text text-anchor="middle" x="158.74" y="-314.28" font-family="Times-Roman" font-size="14.00">result</text>
</g>
<!-- N15 -->
<g id="node15" class="node">
<title>N15</title>
<polygon fill="#de707f" fill-opacity="0.466667" stroke="black" stroke-width="0" points="161.74,-172.74 44.74,-172.74 44.74,-119.74 161.74,-119.74 161.74,-172.74"/>
<text text-anchor="middle" x="103.24" y="-157.54" font-family="Times-Roman" font-size="14.00">sort (15)</text>
<text text-anchor="middle" x="103.24" y="-142.54" font-family="Times-Roman" font-size="14.00">State: finished</text>
<text text-anchor="middle" x="103.24" y="-127.54" font-family="Times-Roman" font-size="14.00">Exit Code: 0</text>
</g>
<!-- N14&#45;&gt;N15 -->
<g id="edge10" class="edge">
<title>N14&#45;&gt;N15</title>
<path fill="none" stroke="#000000" d="M103.24,-238.56C103.24,-222.19 103.24,-200.85 103.24,-182.91"/>
<polygon fill="#000000" stroke="#000000" points="106.74,-182.81 103.24,-172.81 99.74,-182.81 106.74,-182.81"/>
<text text-anchor="middle" x="146.24" y="-209.54" font-family="Times-Roman" font-size="14.00">INPUT_CALC</text>
<text text-anchor="middle" x="146.24" y="-194.54" font-family="Times-Roman" font-size="14.00">kwargs_0</text>
</g>
<!-- N16 -->
<g id="node16" class="node">
<title>N16</title>
<ellipse fill="#8cd499" stroke="black" stroke-width="0" cx="103.24" cy="-26.87" rx="103.48" ry="26.74"/>
<text text-anchor="middle" x="103.24" y="-30.67" font-family="Times-Roman" font-size="14.00">StructureData (16)</text>
<text text-anchor="middle" x="103.24" y="-15.67" font-family="Times-Roman" font-size="14.00">C53</text>
</g>
<!-- N15&#45;&gt;N16 -->
<g id="edge12" class="edge">
<title>N15&#45;&gt;N16</title>
<path fill="none" stroke="#000000" d="M103.24,-119.48C103.24,-103.24 103.24,-82.01 103.24,-64.09"/>
<polygon fill="#000000" stroke="#000000" points="106.74,-63.97 103.24,-53.97 99.74,-63.97 106.74,-63.97"/>
<text text-anchor="middle" x="130.74" y="-90.54" font-family="Times-Roman" font-size="14.00">CREATE</text>
<text text-anchor="middle" x="130.74" y="-75.54" font-family="Times-Roman" font-size="14.00">result</text>
</g>
</g>
</svg>