<?xml version="1.0" encoding="UTF-8" standalone="no"?>
<!DOCTYPE svg PUBLIC "-//W3C//DTD SVG 1.1//EN"
 "http://www.w3.org/Graphics/SVG/1.1/DTD/svg11.dtd">
<!-- Generated by graphviz version 2.47.2 (20210527.1257)
 -->
<!-- Pages: 1 -->
<svg width="367pt" height="504pt"
 viewBox="0.00 0.00 367.10 504.00" xmlns="http://www.w3.org/2000/svg" xmlns:xlink="http://www.w3.org/1999/xlink">
<g id="graph0" class="graph" transform="scale(0.65 0.65) rotate(0) translate(4 773.96)">
<polygon fill="white" stroke="transparent" points="-4,4 -4,-773.96 562.65,-773.96 562.65,4 -4,4"/>
<!-- N11 -->
<g id="node1" class="node">
<title>N11</title>
<ellipse fill="#8cd499" stroke="red" stroke-width="6" cx="366.65" cy="-26.87" rx="98.08" ry="26.74"/>
<text text-anchor="middle" x="366.65" y="-30.67" font-family="Times-Roman" font-size="14.00">StructureData (11)</text>
<text text-anchor="middle" x="366.65" y="-15.67" font-family="Times-Roman" font-size="14.00">C53</text>
</g>
<!-- N1 -->
<g id="node2" class="node">
<title>N1</title>
<ellipse fill="#8cd499" stroke="black" stroke-width="0" cx="39.65" cy="-743.09" rx="39.79" ry="18"/>
<text text-anchor="middle" x="39.65" y="-739.39" font-family="Times-Roman" font-size="14.00">List (1)</text>
</g>
<!-- N3 -->
<g id="node4" class="node">
<title>N3</title>
<polygon fill="#de707f" fill-opacity="0.466667" stroke="black" stroke-width="0" points="177.65,-650.22 51.65,-650.22 51.65,-597.22 177.65,-597.22 177.65,-650.22"/>
<text text-anchor="middle" x="114.65" y="-635.02" font-family="Times-Roman" font-size="14.00">Atoms.repeat (3)</text>
<text text-anchor="middle" x="114.65" y="-620.02" font-family="Times-Roman" font-size="14.00">State: finished</text>
<text text-anchor="middle" x="114.65" y="-605.02" font-family="Times-Roman" font-size="14.00">Exit Code: 0</text>
</g>
<!-- N1&#45;&gt;N3 -->
<g id="edge4" class="edge">
<title>N1&#45;&gt;N3</title>
<path fill="none" stroke="#000000" d="M49.73,-725.57C58.96,-710.54 73.04,-687.78 85.65,-668.22 87.63,-665.14 89.71,-661.95 91.81,-658.76"/>
<polygon fill="#000000" stroke="#000000" points="94.74,-660.67 97.34,-650.4 88.9,-656.81 94.74,-660.67"/>
<text text-anchor="middle" x="126.65" y="-687.02" font-family="Times-Roman" font-size="14.00">INPUT_CALC</text>
<text text-anchor="middle" x="126.65" y="-672.02" font-family="Times-Roman" font-size="14.00">arg_00</text>
</g>
<!-- N2 -->
<g id="node3" class="node">
<title>N2</title>
<ellipse fill="#8cd499" stroke="black" stroke-width="0" cx="189.65" cy="-743.09" rx="92.76" ry="26.74"/>
<text text-anchor="middle" x="189.65" y="-746.89" font-family="Times-Roman" font-size="14.00">StructureData (2)</text>
<text text-anchor="middle" x="189.65" y="-731.89" font-family="Times-Roman" font-size="14.00">C2</text>
</g>
<!-- N2&#45;&gt;N3 -->
<g id="edge6" class="edge">
<title>N2&#45;&gt;N3</title>
<path fill="none" stroke="#000000" d="M185.83,-716.2C182.71,-701.24 177.2,-682.6 167.65,-668.22 165.13,-664.44 162.19,-660.82 159,-657.39"/>
<polygon fill="#000000" stroke="#000000" points="161.3,-654.74 151.71,-650.22 156.39,-659.73 161.3,-654.74"/>
<text text-anchor="middle" x="222.65" y="-687.02" font-family="Times-Roman" font-size="14.00">INPUT_CALC</text>
<text text-anchor="middle" x="222.65" y="-672.02" font-family="Times-Roman" font-size="14.00">kwargs_0</text>
</g>
<!-- N4 -->
<g id="node5" class="node">
<title>N4</title>
<ellipse fill="#8cd499" stroke="black" stroke-width="0" cx="114.65" cy="-504.35" rx="92.76" ry="26.74"/>
<text text-anchor="middle" x="114.65" y="-508.15" font-family="Times-Roman" font-size="14.00">StructureData (4)</text>
<text text-anchor="middle" x="114.65" y="-493.15" font-family="Times-Roman" font-size="14.00">C54</text>
</g>
<!-- N3&#45;&gt;N4 -->
<g id="edge7" class="edge">
<title>N3&#45;&gt;N4</title>
<path fill="none" stroke="#000000" d="M114.65,-596.96C114.65,-580.72 114.65,-559.49 114.65,-541.57"/>
<polygon fill="#000000" stroke="#000000" points="118.15,-541.45 114.65,-531.45 111.15,-541.45 118.15,-541.45"/>
<text text-anchor="middle" x="139.15" y="-568.02" font-family="Times-Roman" font-size="14.00">CREATE</text>
<text text-anchor="middle" x="139.15" y="-553.02" font-family="Times-Roman" font-size="14.00">result</text>
</g>
<!-- N6 -->
<g id="node7" class="node">
<title>N6</title>
<polygon fill="#de707f" fill-opacity="0.466667" stroke="black" stroke-width="0" points="249.15,-411.48 138.15,-411.48 138.15,-358.48 249.15,-358.48 249.15,-411.48"/>
<text text-anchor="middle" x="193.65" y="-396.28" font-family="Times-Roman" font-size="14.00">Atoms.pop (6)</text>
<text text-anchor="middle" x="193.65" y="-381.28" font-family="Times-Roman" font-size="14.00">State: finished</text>
<text text-anchor="middle" x="193.65" y="-366.28" font-family="Times-Roman" font-size="14.00">Exit Code: 0</text>
</g>
<!-- N4&#45;&gt;N6 -->
<g id="edge3" class="edge">
<title>N4&#45;&gt;N6</title>
<path fill="none" stroke="#000000" d="M131.79,-477.88C143.15,-461 158.19,-438.66 170.59,-420.23"/>
<polygon fill="#000000" stroke="#000000" points="173.59,-422.05 176.27,-411.8 167.78,-418.14 173.59,-422.05"/>
<text text-anchor="middle" x="204.65" y="-448.28" font-family="Times-Roman" font-size="14.00">INPUT_CALC</text>
<text text-anchor="middle" x="204.65" y="-433.28" font-family="Times-Roman" font-size="14.00">kwargs_0</text>
</g>
<!-- N5 -->
<g id="node6" class="node">
<title>N5</title>
<ellipse fill="#8cd499" stroke="black" stroke-width="0" cx="273.65" cy="-504.35" rx="48.17" ry="26.74"/>
<text text-anchor="middle" x="273.65" y="-508.15" font-family="Times-Roman" font-size="14.00">Int (5)</text>
<text text-anchor="middle" x="273.65" y="-493.15" font-family="Times-Roman" font-size="14.00">value: 0</text>
</g>
<!-- N5&#45;&gt;N6 -->
<g id="edge1" class="edge">
<title>N5&#45;&gt;N6</title>
<path fill="none" stroke="#000000" d="M269.17,-477.36C265.66,-462.36 259.64,-443.72 249.65,-429.48 246.92,-425.59 243.74,-421.89 240.3,-418.4"/>
<polygon fill="#000000" stroke="#000000" points="242.67,-415.82 232.97,-411.56 237.89,-420.94 242.67,-415.82"/>
<text text-anchor="middle" x="304.65" y="-448.28" font-family="Times-Roman" font-size="14.00">INPUT_CALC</text>
<text text-anchor="middle" x="304.65" y="-433.28" font-family="Times-Roman" font-size="14.00">arg_00</text>
</g>
<!-- N7 -->
<g id="node8" class="node">
<title>N7</title>
<ellipse fill="#8cd499" stroke="black" stroke-width="0" cx="193.65" cy="-265.61" rx="92.76" ry="26.74"/>
<text text-anchor="middle" x="193.65" y="-269.41" font-family="Times-Roman" font-size="14.00">StructureData (7)</text>
<text text-anchor="middle" x="193.65" y="-254.41" font-family="Times-Roman" font-size="14.00">C53</text>
</g>
<!-- N6&#45;&gt;N7 -->
<g id="edge2" class="edge">
<title>N6&#45;&gt;N7</title>
<path fill="none" stroke="#000000" d="M193.65,-358.22C193.65,-341.98 193.65,-320.75 193.65,-302.83"/>
<polygon fill="#000000" stroke="#000000" points="197.15,-302.71 193.65,-292.71 190.15,-302.71 197.15,-302.71"/>
<text text-anchor="middle" x="218.15" y="-329.28" font-family="Times-Roman" font-size="14.00">CREATE</text>
<text text-anchor="middle" x="218.15" y="-314.28" font-family="Times-Roman" font-size="14.00">result</text>
</g>
<!-- N10 -->
<g id="node11" class="node">
<title>N10</title>
<polygon fill="#de707f" fill-opacity="0.466667" stroke="black" stroke-width="0" points="430.15,-172.74 303.15,-172.74 303.15,-119.74 430.15,-119.74 430.15,-172.74"/>
<text text-anchor="middle" x="366.65" y="-157.54" font-family="Times-Roman" font-size="14.00">Atoms.rattle (10)</text>
<text text-anchor="middle" x="366.65" y="-142.54" font-family="Times-Roman" font-size="14.00">State: finished</text>
<text text-anchor="middle" x="366.65" y="-127.54" font-family="Times-Roman" font-size="14.00">Exit Code: 0</text>
</g>
<!-- N7&#45;&gt;N10 -->
<g id="edge9" class="edge">
<title>N7&#45;&gt;N10</title>
<path fill="none" stroke="#000000" d="M219.77,-239.59C236.41,-224.4 258.86,-205.21 280.65,-190.74 287.56,-186.15 295.02,-181.71 302.56,-177.52"/>
<polygon fill="#000000" stroke="#000000" points="304.28,-180.57 311.42,-172.74 300.96,-174.41 304.28,-180.57"/>
<text text-anchor="middle" x="321.65" y="-209.54" font-family="Times-Roman" font-size="14.00">INPUT_CALC</text>
<text text-anchor="middle" x="321.65" y="-194.54" font-family="Times-Roman" font-size="14.00">kwargs_0</text>
</g>
<!-- N8 -->
<g id="node9" class="node">
<title>N8</title>
<ellipse fill="#8cd499" stroke="black" stroke-width="0" cx="366.65" cy="-265.61" rx="62.45" ry="26.74"/>
<text text-anchor="middle" x="366.65" y="-269.41" font-family="Times-Roman" font-size="14.00">Float (8)</text>
<text text-anchor="middle" x="366.65" y="-254.41" font-family="Times-Roman" font-size="14.00">value: 0.05</text>
</g>
<!-- N8&#45;&gt;N10 -->
<g id="edge8" class="edge">
<title>N8&#45;&gt;N10</title>
<path fill="none" stroke="#000000" d="M366.65,-238.56C366.65,-222.19 366.65,-200.85 366.65,-182.91"/>
<polygon fill="#000000" stroke="#000000" points="370.15,-182.81 366.65,-172.81 363.15,-182.81 370.15,-182.81"/>
<text text-anchor="middle" x="407.65" y="-209.54" font-family="Times-Roman" font-size="14.00">INPUT_CALC</text>
<text text-anchor="middle" x="407.65" y="-194.54" font-family="Times-Roman" font-size="14.00">stdev</text>
</g>
<!-- N9 -->
<g id="node10" class="node">
<title>N9</title>
<ellipse fill="#8cd499" stroke="black" stroke-width="0" cx="500.65" cy="-265.61" rx="53.98" ry="26.74"/>
<text text-anchor="middle" x="500.65" y="-269.41" font-family="Times-Roman" font-size="14.00">Int (9)</text>
<text text-anchor="middle" x="500.65" y="-254.41" font-family="Times-Roman" font-size="14.00">value: 11</text>
</g>
<!-- N9&#45;&gt;N10 -->
<g id="edge5" class="edge">
<title>N9&#45;&gt;N10</title>
<path fill="none" stroke="#000000" d="M488.54,-239.25C480.15,-223.73 467.79,-204.33 452.65,-190.74 447.63,-186.23 442.06,-182.07 436.23,-178.25"/>
<polygon fill="#000000" stroke="#000000" points="437.9,-175.17 427.55,-172.9 434.23,-181.13 437.9,-175.17"/>
<text text-anchor="middle" x="517.65" y="-209.54" font-family="Times-Roman" font-size="14.00">INPUT_CALC</text>
<text text-anchor="middle" x="517.65" y="-194.54" font-family="Times-Roman" font-size="14.00">seed</text>
</g>
<!-- N10&#45;&gt;N11 -->
<g id="edge10" class="edge">
<title>N10&#45;&gt;N11</title>
<path fill="none" stroke="#000000" d="M366.65,-119.48C366.65,-103.24 366.65,-82.01 366.65,-64.09"/>
<polygon fill="#000000" stroke="#000000" points="370.15,-63.97 366.65,-53.97 363.15,-63.97 370.15,-63.97"/>
<text text-anchor="middle" x="391.15" y="-90.54" font-family="Times-Roman" font-size="14.00">CREATE</text>
<text text-anchor="middle" x="391.15" y="-75.54" font-family="Times-Roman" font-size="14.00">result</text>
</g>
</g>
</svg>